<?xml version="1.0" encoding="UTF-8"?>
<svg width="250px" height="214px" viewBox="0 0 250 214" version="1.1" xmlns="http://www.w3.org/2000/svg" xmlns:xlink="http://www.w3.org/1999/xlink">
    <title>logo</title>
    <g id="Page-1" stroke="none" stroke-width="1" fill="none" fill-rule="evenodd">
        <g id="logo">
            <g id="bg" fill="#FFFFFF" fill-rule="nonzero">
                <rect id="Rectangle" x="0" y="0" width="250" height="214" rx="10"></rect>
            </g>
            <g id="icon" transform="translate(37.652701, 18.616932)" fill="#111111" fill-rule="nonzero">
                <path d="M175.194088,1.38306821 L0.347299256,1.38306821 C8.30045222,19.9840078 18.748031,36.6441574 31.7656243,51.3859893 C31.7656243,51.3859893 31.7697102,51.3900752 31.7717531,51.3900752 L31.7717531,51.3839464 C33.8943644,53.7803113 36.106865,56.1705473 38.401083,58.5056241 L38.401083,58.507667 L38.4072118,58.5056241 C45.9150046,66.1482506 54.1786839,73.2208978 63.2493233,79.7725962 L63.2493233,79.7705532 C65.7723503,81.5846811 68.4261252,83.4028949 71.1289306,85.1741211 C71.1330164,85.176164 71.1330164,85.1782069 71.1350594,85.1802499 L71.1350594,85.1741211 C82.3344389,92.5675093 94.6043173,99.0803919 107.963081,104.851688 C114.759932,107.783303 121.924511,110.479979 129.328114,113.01935 C132.18414,92.5082642 141.021884,70.3158417 155.755545,46.2684326 C152.727912,42.636091 150.942385,38.2437769 150.562399,33.2753546 C150.527669,32.8402091 150.509283,32.3948488 150.509283,31.9576604 C150.515412,26.6746258 153.075211,21.528468 157.653433,16.4047825 C161.355234,12.3209518 167.247064,7.43424702 175.347299,1.5097303 C175.294192,1.46887156 175.243119,1.42596989 175.194088,1.38306821 Z M41.5860215,37.0793029 C40.8526072,37.0793029 40.1559657,36.7177031 39.7412496,36.1007362 L31.1077987,23.3977552 C30.6420091,22.7113284 30.5909356,21.8226509 30.9811366,21.0851507 C31.3754234,20.3496935 32.1435676,19.8982044 32.9770858,19.9042716 L134.65405,20.7562379 C135.890027,20.7684955 136.878809,21.7756634 136.866664,23.015726 C136.860422,23.7552691 136.492693,24.4069659 135.934972,24.8114674 C135.922714,24.8216821 135.910456,24.8298539 135.900242,24.8359827 C135.898199,24.8400686 135.890027,24.8421115 135.890027,24.8461974 C135.87777,24.8523262 135.871641,24.858455 135.859383,24.8604979 C135.853254,24.8707126 135.840997,24.8727555 135.834868,24.8788844 C135.828739,24.8850132 135.828739,24.8850132 135.82261,24.8850132 C135.554985,25.0566199 135.248545,25.1710243 134.915546,25.213926 L41.8740756,37.0588736 C41.7739717,37.0731741 41.6799966,37.0793029 41.5860215,37.0793029 Z M65.5210691,63.1083607 C65.233015,63.2350228 64.9306603,63.2942679 64.6262627,63.2942679 C63.9275783,63.2942679 63.2329798,62.9653551 62.7957914,62.3524741 L53.6311769,49.3716536 C53.1837737,48.7403862 53.0897986,47.9211685 53.3941962,47.2020548 C53.7047226,46.4870269 54.3645912,45.9844644 55.1286495,45.8721029 L132.868524,34.3764975 C134.006439,34.2048908 135.087153,34.9321763 135.367035,36.0476198 C135.642832,37.1569345 135.031994,38.3071079 133.947194,38.693223 L65.5210691,63.1083607 Z M139.303775,46.838412 L96.7412292,85.4254023 C96.3183413,85.8442043 95.7524478,86.0627986 95.1742967,86.0627986 C94.8392551,86.0627986 94.4960417,85.9872099 94.1855153,85.8319467 C94.1793865,85.8319467 94.1793865,85.8278608 94.1793865,85.8278608 C94.1487424,85.8115173 94.1242272,85.7992597 94.097669,85.7808733 C94.0854114,85.7767874 94.0792826,85.7706586 94.0690679,85.7686157 C94.0527244,85.758401 94.0404668,85.7563581 94.032295,85.7461434 C94.0159515,85.7338857 93.9955222,85.7236711 93.9730499,85.7154993 C93.9669211,85.7052846 93.9587493,85.6991558 93.9505776,85.693027 C93.9281053,85.6828123 93.9158476,85.6746406 93.9015471,85.6644259 C93.8974612,85.6582971 93.8852036,85.6521683 93.8790748,85.6460395 C93.8606883,85.6358248 93.8423019,85.6215242 93.8239155,85.6051807 C93.8198296,85.6010949 93.8137008,85.5990519 93.8116579,85.5929231 L78.8267164,74.0503302 C78.2117925,73.5743259 77.8849226,72.8143534 77.9727688,72.0400804 C78.0504004,71.2658073 78.5407053,70.5895953 79.2414326,70.2586395 L136.850207,43.154997 C137.853289,42.6789927 139.052493,43.0119914 139.66946,43.9353988 C140.284384,44.8608492 140.125035,46.0927401 139.303775,46.838412 Z" id="Shape"></path>
            </g>
            <text id="MANCHESTER" font-family="Montserrat-SemiBold, Montserrat" font-size="28.5" font-weight="500" letter-spacing="0.386418" fill="#111111">
                <tspan x="18" y="171">MANCHESTER</tspan>
            </text>
            <text id="RIDERS-CYCLING-CLUB" font-family="Montserrat-SemiBold, Montserrat" font-size="16" font-weight="500" letter-spacing="1.154895" fill="#111111">
                <tspan x="19" y="193.5">RIDERS CYCLING CLUB</tspan>
            </text>
        </g>
    </g>
</svg>