<?xml version="1.0" encoding="UTF-8"?>
<svg width="250px" height="214px" viewBox="0 0 250 214" version="1.1" xmlns="http://www.w3.org/2000/svg" xmlns:xlink="http://www.w3.org/1999/xlink">
    <title>logo</title>
    <g id="Page-1" stroke="none" stroke-width="1" fill="none" fill-rule="evenodd">
        <g id="logo" fill-rule="nonzero">
            <g id="bg" fill="#111111">
                <rect id="Rectangle" x="0" y="0" width="250" height="214" rx="10"></rect>
            </g>
            <g id="icon" transform="translate(37.652701, 18.616932)" fill="#FFFFFF">
                <path d="M175.194088,1.38306821 L0.347299256,1.38306821 C8.30045222,19.9840078 18.748031,36.6441574 31.7656243,51.3859893 C31.7656243,51.3859893 31.7697102,51.3900752 31.7717531,51.3900752 L31.7717531,51.3839464 C33.8943644,53.7803113 36.106865,56.1705473 38.401083,58.5056241 L38.401083,58.507667 L38.4072118,58.5056241 C45.9150046,66.1482506 54.1786839,73.2208978 63.2493233,79.7725962 L63.2493233,79.7705532 C65.7723503,81.5846811 68.4261252,83.4028949 71.1289306,85.1741211 C71.1330164,85.176164 71.1330164,85.1782069 71.1350594,85.1802499 L71.1350594,85.1741211 C82.3344389,92.5675093 94.6043173,99.0803919 107.963081,104.851688 C114.759932,107.783303 121.924511,110.479979 129.328114,113.01935 C132.18414,92.5082642 141.021884,70.3158417 155.755545,46.2684326 C152.727912,42.636091 150.942385,38.2437769 150.562399,33.2753546 C150.527669,32.8402091 150.509283,32.3948488 150.509283,31.9576604 C150.515412,26.6746258 153.075211,21.528468 157.653433,16.4047825 C161.355234,12.3209518 167.247064,7.43424702 175.347299,1.5097303 C175.294192,1.46887156 175.243119,1.42596989 175.194088,1.38306821 Z M41.5860215,37.0793029 C40.8526072,37.0793029 40.1559657,36.7177031 39.7412496,36.1007362 L31.1077987,23.3977552 C30.6420091,22.7113284 30.5909356,21.8226509 30.9811366,21.0851507 C31.3754234,20.3496935 32.1435676,19.8982044 32.9770858,19.9042716 L134.65405,20.7562379 C135.890027,20.7684955 136.878809,21.7756634 136.866664,23.015726 C136.860422,23.7552691 136.492693,24.4069659 135.934972,24.8114674 C135.922714,24.8216821 135.910456,24.8298539 135.900242,24.8359827 C135.898199,24.8400686 135.890027,24.8421115 135.890027,24.8461974 C135.87777,24.8523262 135.871641,24.858455 135.859383,24.8604979 C135.853254,24.8707126 135.840997,24.8727555 135.834868,24.8788844 C135.828739,24.8850132 135.828739,24.8850132 135.82261,24.8850132 C135.554985,25.0566199 135.248545,25.1710243 134.915546,25.213926 L41.8740756,37.0588736 C41.7739717,37.0731741 41.6799966,37.0793029 41.5860215,37.0793029 Z M65.5210691,63.1083607 C65.233015,63.2350228 64.9306603,63.2942679 64.6262627,63.2942679 C63.9275783,63.2942679 63.2329798,62.9653551 62.7957914,62.3524741 L53.6311769,49.3716536 C53.1837737,48.7403862 53.0897986,47.9211685 53.3941962,47.2020548 C53.7047226,46.4870269 54.3645912,45.9844644 55.1286495,45.8721029 L132.868524,34.3764975 C134.006439,34.2048908 135.087153,34.9321763 135.367035,36.0476198 C135.642832,37.1569345 135.031994,38.3071079 133.947194,38.693223 L65.5210691,63.1083607 Z M139.303775,46.838412 L96.7412292,85.4254023 C96.3183413,85.8442043 95.7524478,86.0627986 95.1742967,86.0627986 C94.8392551,86.0627986 94.4960417,85.9872099 94.1855153,85.8319467 C94.1793865,85.8319467 94.1793865,85.8278608 94.1793865,85.8278608 C94.1487424,85.8115173 94.1242272,85.7992597 94.097669,85.7808733 C94.0854114,85.7767874 94.0792826,85.7706586 94.0690679,85.7686157 C94.0527244,85.758401 94.0404668,85.7563581 94.032295,85.7461434 C94.0159515,85.7338857 93.9955222,85.7236711 93.9730499,85.7154993 C93.9669211,85.7052846 93.9587493,85.6991558 93.9505776,85.693027 C93.9281053,85.6828123 93.9158476,85.6746406 93.9015471,85.6644259 C93.8974612,85.6582971 93.8852036,85.6521683 93.8790748,85.6460395 C93.8606883,85.6358248 93.8423019,85.6215242 93.8239155,85.6051807 C93.8198296,85.6010949 93.8137008,85.5990519 93.8116579,85.5929231 L78.8267164,74.0503302 C78.2117925,73.5743259 77.8849226,72.8143534 77.9727688,72.0400804 C78.0504004,71.2658073 78.5407053,70.5895953 79.2414326,70.2586395 L136.850207,43.154997 C137.853289,42.6789927 139.052493,43.0119914 139.66946,43.9353988 C140.284384,44.8608492 140.125035,46.0927401 139.303775,46.838412 Z" id="Shape"></path>
            </g>
            <g id="man" transform="translate(19.672732, 151.736614)" fill="#FFFFFF">
                <path d="M23.1594207,19.7559478 L19.1811178,19.7559478 L17.9170778,5.26598194 L13.0473048,19.7559478 L10.4660199,19.7559478 L5.59624688,5.26598194 L4.31892268,19.7559478 L0.327267493,19.7559478 L1.93724099,0.529323152 L7.63199511,0.529323152 L11.7300599,12.5974823 L15.8813977,0.529323152 L21.5761518,0.529323152 L23.1594207,19.7559478 Z M42.6785525,19.7559478 L41.2814664,15.790929 L33.2053712,15.790929 L31.8082851,19.7559478 L27.7235045,19.7559478 L34.8022649,0.529323152 L39.6853902,0.529323152 L46.7641507,19.7559478 L42.67937,19.7559478 L42.6785525,19.7559478 Z M34.3762858,12.4510158 L40.1109606,12.4510158 L37.2502993,4.2945343 L34.3762858,12.4510158 Z M65.2581745,0.529323152 L69.2364774,0.529323152 L69.2364774,19.7559478 L64.6195124,19.7559478 L56.1040177,6.01125804 L56.1040177,19.7559478 L52.1257148,19.7559478 L52.1257148,0.529323152 L56.6894749,0.529323152 L65.2581064,14.1943078 L65.2581064,0.529323152 L65.2581745,0.529323152 Z M85.2026127,20.0220604 C79.5477792,20.0220604 75.3696007,16.1768036 75.3696007,10.1359116 C75.3696007,4.09501966 79.5475067,0.263387658 85.2026127,0.263387658 C89.4869965,0.263387658 92.9196947,2.45881845 94.2903487,6.10447205 L90.5647857,7.46163753 C89.7132362,5.22628611 87.677488,3.93567773 85.2026808,3.93567773 C81.8896084,3.93567773 79.3482442,6.25080231 79.3482442,10.1360479 C79.3482442,14.0212934 81.8896084,16.3497022 85.2026808,16.3497022 C87.677488,16.3497022 89.7132362,15.0457415 90.5647857,12.8104582 L94.2903487,14.1676237 C92.919899,17.8133454 89.4870647,20.0220604 85.2026127,20.0220604 L85.2026127,20.0220604 Z M112.159497,0.529323152 L116.151152,0.529323152 L116.151152,19.7559478 L112.159497,19.7559478 L112.159497,11.8522062 L104.029584,11.8522062 L104.029584,19.7559478 L100.037929,19.7559478 L100.037929,0.529323152 L104.029584,0.529323152 L104.029584,8.37924681 L112.159497,8.37924681 L112.159497,0.529323152 Z M134.752701,4.04247566 L127.620804,4.04247566 L127.620804,8.40670076 L133.940868,8.40670076 L133.940868,11.8794558 L127.620804,11.8794558 L127.620804,16.2303286 L134.752701,16.2303286 L134.752701,19.7562884 L123.602853,19.7562884 L123.602853,0.529663772 L134.752701,0.529663772 L134.752701,4.04233941 L134.752701,4.04247566 Z M147.724972,20.0221285 C143.60027,20.0221285 140.380528,18.039517 139.794662,14.433784 L143.919363,13.4891091 C144.185476,15.6446192 145.768792,16.7622609 147.884382,16.7622609 C149.507639,16.7622609 150.798248,16.0437575 150.784964,14.4204998 C150.771658,12.6109231 148.642806,12.0388181 146.301045,11.3203148 C143.480304,10.4421288 140.45996,9.40432844 140.45996,5.86508446 C140.45996,2.28591984 143.387179,0.263455782 147.24572,0.263455782 C150.625281,0.263455782 154.031479,1.63390544 154.803391,5.31954781 L150.944782,6.27757502 C150.585537,4.36158871 149.294888,3.52332341 147.48538,3.52332341 C145.875406,3.52332341 144.504957,4.18859473 144.504957,5.77195901 C144.504957,7.24888641 146.394306,7.74115013 148.576453,8.39316453 C151.477035,9.27135047 154.909869,10.3889921 154.909869,14.2209647 C154.909869,18.3057454 151.490387,20.0221285 147.724835,20.0221285 L147.724972,20.0221285 Z M172.220878,0.529323152 L172.220878,4.04199879 L167.657118,4.04199879 L167.657118,19.7554709 L163.705383,19.7554709 L163.705383,4.04199879 L159.114987,4.04199879 L159.114987,0.529323152 L172.220674,0.529323152 L172.220878,0.529323152 Z M188.866009,4.04247566 L181.734112,4.04247566 L181.734112,8.40670076 L188.054176,8.40670076 L188.054176,11.8794558 L181.734112,11.8794558 L181.734112,16.2303286 L188.866009,16.2303286 L188.866009,19.7562884 L177.716161,19.7562884 L177.716161,0.529663772 L188.866009,0.529663772 L188.866009,4.04233941 L188.866009,4.04247566 Z M205.604172,19.7559478 L200.601285,11.2935897 L199.443722,11.2935897 L199.443722,19.7559478 L195.452067,19.7559478 L195.452067,0.529323152 L202.423873,0.529323152 C206.774746,0.529323152 208.610891,3.09725574 208.610891,6.27728209 C208.610891,8.85856697 207.147316,10.5350295 204.539394,11.0938503 L210.327274,19.7559478 L205.603831,19.7559478 L205.604172,19.7559478 Z M199.443518,3.84287246 L199.443518,8.43326911 L201.798563,8.43326911 C203.927437,8.43326911 204.792271,7.52851482 204.792271,6.14471287 C204.792271,4.77426321 203.927437,3.84287246 201.798563,3.84287246 L199.443518,3.84287246 Z" id="Shape"></path>
            </g>
            <g id="rcc" transform="translate(19.731416, 181.840879)" fill="#FFFFFF">
                <path d="M6.40181129,11.9352316 L3.37939909,6.82283687 L2.68007683,6.82283687 L2.68007683,11.9352316 L0.268583867,11.9352316 L0.268583867,0.319781895 L4.48048594,0.319781895 C7.10899434,0.319781895 8.21827123,1.87115622 8.21827123,3.79231695 C8.21827123,5.35175785 7.33407635,6.36456514 5.75854346,6.70216757 L9.25519592,11.9352316 L6.40160551,11.9352316 L6.40181129,11.9352316 Z M2.67995336,2.32160832 L2.67995336,5.09482112 L4.10271528,5.09482112 C5.38883938,5.09482112 5.91131443,4.54822867 5.91131443,3.71222743 C5.91131443,2.88429276 5.38883938,2.32160832 4.10271528,2.32160832 L2.67995336,2.32160832 L2.67995336,2.32160832 Z M12.5187924,11.9352316 L12.5187924,0.319781895 L14.9302854,0.319781895 L14.9302854,11.9352316 L12.5187924,11.9352316 Z M19.4236711,11.9352316 L19.4236711,0.319781895 L23.6277536,0.319781895 C27.333396,0.319781895 29.1661126,2.65089725 29.1661126,6.12359693 C29.1661126,9.6041574 27.333396,11.9352316 23.6277536,11.9352316 L19.4236711,11.9352316 Z M21.8351641,9.80508085 L23.5071254,9.80508085 C25.6453016,9.80508085 26.6259661,8.47072195 26.6259661,6.12355577 C26.6259661,3.77638959 25.6453016,2.4420307 23.5071254,2.4420307 L21.8351641,2.4420307 L21.8351641,9.80524547 L21.8351641,9.80508085 Z M39.6562217,2.44219532 L35.3476031,2.44219532 L35.3476031,5.07877029 L39.165766,5.07877029 L39.165766,7.17677823 L35.3476031,7.17677823 L35.3476031,9.80528663 L39.6562217,9.80528663 L39.6562217,11.9354374 L32.9202239,11.9354374 L32.9202239,0.319987675 L39.6562217,0.319987675 L39.6562217,2.44211301 L39.6562217,2.44219532 Z M49.7683081,11.9352316 L46.7458959,6.82283687 L46.0465736,6.82283687 L46.0465736,11.9352316 L43.6350807,11.9352316 L43.6350807,0.319781895 L47.8469827,0.319781895 C50.4754911,0.319781895 51.584768,1.87115622 51.584768,3.79231695 C51.584768,5.35175785 50.7005731,6.36456514 49.1250403,6.70216757 L52.6216927,11.9352316 L49.7681023,11.9352316 L49.7683081,11.9352316 Z M46.0464502,2.32160832 L46.0464502,5.09482112 L47.4692121,5.09482112 C48.7553362,5.09482112 49.2778112,4.54822867 49.2778112,3.71222743 C49.2778112,2.88429276 48.7553362,2.32160832 47.4692121,2.32160832 L46.0464502,2.32160832 Z M59.743538,12.0960403 C57.2516674,12.0960403 55.3065128,10.8982781 54.9525714,8.71993371 L57.444442,8.14922386 C57.6052096,9.45143993 58.5617443,10.1266448 59.839843,10.1266448 C60.8205075,10.1266448 61.6002073,9.69257277 61.5921819,8.71190829 C61.5841437,7.61868223 60.2980324,7.27305439 58.8832959,6.83898236 C57.1791918,6.30844074 55.3545006,5.68147068 55.3545006,3.54329452 C55.3545006,1.38100095 57.1229316,0.159162487 59.4540058,0.159162487 C61.4957123,0.159162487 63.5535109,0.987097156 64.0198492,3.2137175 L61.6887338,3.79249392 C61.4717019,2.63498224 60.6919774,2.12855801 59.5987925,2.12855801 C58.6261534,2.12855801 57.7982187,2.53047076 57.7982187,3.4870343 C57.7982187,4.37929575 58.9396384,4.6766888 60.2579465,5.0705926 C62.0102854,5.60113422 64.084176,6.27633908 64.084176,8.59136245 C64.084176,11.0591156 62.018352,12.0960403 59.7434557,12.0960403 L59.743538,12.0960403 Z M78.7219067,12.0959992 C75.3056318,12.0959992 72.7814538,9.77295038 72.7814538,6.12344465 C72.7814538,2.47393892 75.3054672,0.159121331 78.7219067,0.159121331 C81.3102469,0.159121331 83.3840551,1.48545481 84.2121132,3.6879166 L81.9613755,4.50782585 C81.4469258,3.15737498 80.2170619,2.3776751 78.7219478,2.3776751 C76.7204095,2.3776751 75.185086,3.77631962 75.185086,6.12352696 C75.185086,8.4707343 76.7204095,9.87740423 78.7219478,9.87740423 C80.2170619,9.87740423 81.4469258,9.08963779 81.9613755,7.73922807 L84.2121132,8.55913733 C83.3841785,10.7616403 81.310288,12.0959992 78.7219067,12.0959992 Z M96.3981673,0.319781895 L92.5799632,6.37259055 L92.5799632,11.9352316 L90.1604449,11.9352316 L90.1604449,6.42897423 L86.3181646,0.319781895 L88.9868824,0.319781895 L91.3581659,4.27462377 L93.7375161,0.319781895 L96.3981673,0.319781895 L96.3981673,0.319781895 Z M104.66946,12.0959992 C101.253185,12.0959992 98.7290074,9.77295038 98.7290074,6.12344465 C98.7290074,2.47393892 101.253021,0.159121331 104.66946,0.159121331 C107.2578,0.159121331 109.331609,1.48545481 110.159667,3.6879166 L107.908929,4.50782585 C107.394479,3.15737498 106.164616,2.3776751 104.669501,2.3776751 C102.667963,2.3776751 101.13264,3.77631962 101.13264,6.12352696 C101.13264,8.4707343 102.667963,9.87740423 104.669501,9.87740423 C106.164616,9.87740423 107.394479,9.08963779 107.908929,7.73922807 L110.159667,8.55913733 C109.331732,10.7616403 107.257842,12.0959992 104.66946,12.0959992 Z M116.043754,9.80508085 L119.685111,9.80508085 L119.685111,11.9352316 L113.632302,11.9352316 L113.632302,0.319781895 L116.043795,0.319781895 L116.043795,9.80499853 L116.043754,9.80508085 Z M123.020967,11.9352316 L123.020967,0.319781895 L125.43246,0.319781895 L125.43246,11.9352316 L123.020967,11.9352316 Z M137.85977,0.319781895 L140.263197,0.319781895 L140.263197,11.9352316 L137.473933,11.9352316 L132.329437,3.63160288 L132.329437,11.9352316 L129.92601,11.9352316 L129.92601,0.319781895 L132.683131,0.319781895 L137.859729,8.57525812 L137.859729,0.319781895 L137.85977,0.319781895 Z M149.788288,12.0959992 C146.43634,12.0959992 143.968422,9.78097579 143.968422,6.15554631 C143.968422,2.48204665 146.492436,0.159121331 149.908875,0.159121331 C152.151546,0.159121331 154.00838,1.14781122 155.02127,2.89212474 L152.907211,4.01749361 C152.296292,2.82783912 151.203107,2.25712927 149.908916,2.25712927 C147.899353,2.25712927 146.388147,3.63972296 146.388147,6.09940956 C146.388147,8.47069315 147.802883,9.99799123 149.997319,9.99799123 C151.484408,9.99799123 152.85091,9.25845959 153.180487,7.56238086 L150.005386,7.56238086 L150.005386,5.62516931 L155.463491,5.62516931 L155.463491,11.9352028 L153.566448,11.9352028 L153.566448,10.3275271 C152.818891,11.4287786 151.564909,12.0959992 149.788453,12.0959992 L149.788288,12.0959992 Z M170.374325,12.0959992 C166.95805,12.0959992 164.433872,9.77295038 164.433872,6.12344465 C164.433872,2.47393892 166.957885,0.159121331 170.374325,0.159121331 C172.962665,0.159121331 175.036473,1.48545481 175.864531,3.6879166 L173.613794,4.50782585 C173.099344,3.15737498 171.86948,2.3776751 170.374366,2.3776751 C168.372828,2.3776751 166.837504,3.77631962 166.837504,6.12352696 C166.837504,8.4707343 168.372828,9.87740423 170.374366,9.87740423 C171.86948,9.87740423 173.099344,9.08963779 173.613794,7.73922807 L175.864531,8.55913733 C175.036597,10.7616403 172.962706,12.0959992 170.374325,12.0959992 Z M181.748619,9.80508085 L185.389976,9.80508085 L185.389976,11.9352316 L179.337167,11.9352316 L179.337167,0.319781895 L181.74866,0.319781895 L181.74866,9.80499853 L181.748619,9.80508085 Z M193.026507,12.0959992 C190.478376,12.0959992 188.484946,10.7937831 188.484946,7.86804626 L188.484946,0.320041177 L190.896439,0.320041177 L190.896439,7.53838693 C190.896439,9.30681785 191.836935,9.96593073 193.026589,9.96593073 C194.22431,9.96593073 195.172791,9.29875128 195.172791,7.53838693 L195.172791,0.320041177 L197.584284,0.320041177 L197.584284,7.86804626 C197.584284,10.7939889 195.582746,12.0959992 193.026672,12.0959992 L193.026507,12.0959992 Z M208.082184,5.80216879 C209.392426,6.16389274 210.268595,7.02400726 210.268595,8.6798766 C210.268595,10.6412056 209.078941,11.9353962 206.627239,11.9353962 L201.844503,11.9353962 L201.844503,0.319946519 L205.606406,0.319946519 C208.114368,0.319946519 209.432635,1.525693 209.432635,3.50311394 C209.432635,4.5239878 208.990538,5.35994789 208.082184,5.80204533 L208.082184,5.80216879 Z M205.630523,2.32160832 L204.167552,2.32160832 L204.167552,5.05461174 L205.735018,5.05461174 C206.763917,5.05461174 207.214082,4.4436925 207.214082,3.65596722 C207.214082,2.88429276 206.707657,2.32160832 205.630523,2.32160832 Z M206.177075,9.86940763 C207.479291,9.86940763 207.929413,9.17008537 207.929413,8.41446174 C207.929413,7.64278729 207.487316,6.91132221 206.12884,6.91132221 L204.167511,6.91132221 L204.167511,9.86940763 L206.177075,9.86940763 L206.177075,9.86940763 Z" id="Shape"></path>
            </g>
        </g>
    </g>
</svg>