<?xml version="1.0" encoding="UTF-8"?>
<svg width="152px" height="100px" viewBox="0 0 152 100" version="1.1" xmlns="http://www.w3.org/2000/svg" xmlns:xlink="http://www.w3.org/1999/xlink">
    <title>logo</title>
    <g id="Page-1" stroke="none" stroke-width="1" fill="none" fill-rule="evenodd">
        <g id="logo" fill="#FFFFFF" fill-rule="nonzero">
            <g id="icon" transform="translate(0.701718, 0.812136)">
                <path d="M150.467388,1.18786349 L0.298281823,1.18786349 C7.12893557,17.163487 16.1019546,31.4722415 27.2822592,44.1334276 C27.2822592,44.1334276 27.2857684,44.1369368 27.287523,44.1369368 L27.287523,44.131673 C29.1105513,46.1898176 31.010782,48.2426984 32.9811966,50.248205 L32.9811966,50.2499596 L32.9864604,50.248205 C39.4346116,56.8121597 46.5319644,62.8865813 54.3223837,68.5135801 L54.3223837,68.5118255 C56.4893135,70.0699094 58.7685375,71.6315025 61.0898719,73.1527398 C61.0933811,73.1544944 61.0933811,73.156249 61.0951357,73.1580036 L61.0951357,73.1527398 C70.7138472,79.5026334 81.2519685,85.0962949 92.7252911,90.0530369 C98.5628419,92.5708864 104.71622,94.8869571 111.074887,97.0679236 C113.527816,79.45175 121.118211,60.3915415 133.772379,39.7381572 C131.172064,36.6184803 129.638544,32.8460925 129.312189,28.5789078 C129.28236,28.2051783 129.266569,27.8226757 129.266569,27.4471915 C129.271833,22.9097986 131.470345,18.4899638 135.402402,14.0894296 C138.581735,10.5819863 143.641998,6.38498561 150.598983,1.29664863 C150.553364,1.26155665 150.509499,1.22471007 150.467388,1.18786349 Z M35.7166164,31.8459711 C35.0867154,31.8459711 34.4883971,31.5354071 34.1322135,31.0055182 L26.7172783,20.0954219 C26.3172298,19.5058766 26.2733648,18.7426261 26.6084932,18.1092158 C26.9471308,17.4775602 27.60686,17.0897939 28.3227364,17.0950047 L115.649127,17.8267254 C116.710659,17.837253 117.559885,18.7022703 117.549454,19.7673119 C117.544093,20.4024767 117.228266,20.9621938 116.74926,21.3096043 C116.738732,21.3183773 116.728205,21.3253957 116.719432,21.3306595 C116.717677,21.3341687 116.710659,21.3359233 116.710659,21.3394325 C116.700131,21.3446963 116.694868,21.3499601 116.68434,21.3517147 C116.679076,21.3604877 116.668549,21.3622423 116.663285,21.3675061 C116.658021,21.3727699 116.658021,21.3727699 116.652757,21.3727699 C116.422905,21.5201562 116.159715,21.6184138 115.873715,21.6552603 L35.9640148,31.8284251 C35.8780395,31.8407073 35.7973279,31.8459711 35.7166164,31.8459711 Z M56.2734978,54.2013164 C56.0260993,54.3101015 55.7664187,54.3609849 55.5049834,54.3609849 C54.9049106,54.3609849 54.3083469,54.0784945 53.9328628,53.5521148 L46.0617318,42.403393 C45.6774747,41.8612219 45.5967631,41.1576278 45.8581984,40.5400089 C46.1248974,39.9258993 46.6916329,39.4942679 47.3478529,39.397765 L114.115607,29.5246367 C115.092919,29.3772504 116.021102,30.0018876 116.261482,30.9598986 C116.498352,31.9126458 115.973727,32.9004851 115.042035,33.2321043 L56.2734978,54.2013164 Z M119.642594,40.2276903 L83.0872791,73.3685554 C82.7240771,73.7282482 82.2380532,73.9159903 81.7415017,73.9159903 C81.4537474,73.9159903 81.1589748,73.8510701 80.8922758,73.7177206 C80.887012,73.7177206 80.887012,73.7142114 80.887012,73.7142114 C80.860693,73.7001746 80.8396378,73.689647 80.816828,73.6738556 C80.8063004,73.6703465 80.8010366,73.6650827 80.7922636,73.6633281 C80.7782268,73.6545551 80.7676992,73.6528005 80.7606808,73.6440275 C80.746644,73.6334999 80.7290981,73.6247269 80.7097975,73.6177085 C80.7045337,73.6089355 80.6975153,73.6036717 80.6904969,73.5984079 C80.6711963,73.5896349 80.6606687,73.5826165 80.6483865,73.5738435 C80.6448773,73.5685797 80.6343497,73.5633159 80.6290859,73.5580521 C80.6132945,73.5492791 80.5975031,73.5369969 80.5817117,73.5229601 C80.5782025,73.5194509 80.5729388,73.5176963 80.5711842,73.5124325 L67.7012008,63.5989484 C67.1730665,63.1901269 66.8923307,62.5374161 66.9677784,61.8724231 C67.0344532,61.2074301 67.4555569,60.6266578 68.0573844,60.3424128 L117.53532,37.0641484 C118.396828,36.6553268 119.426778,36.9413265 119.956667,37.7344052 C120.484801,38.5292385 120.347943,39.5872617 119.642594,40.2276903 Z" id="Shape"></path>
            </g>
        </g>
    </g>
</svg>